<svg id="Capa_1" data-name="Capa 1" xmlns="http://www.w3.org/2000/svg" viewBox="0 0 101.68 171.62"><title>ico-nosotros-01</title><path d="M19.41,71.78c.08-1.59.2-3,.21-4.41.06-13.6.05-27.19.18-40.79a17,17,0,0,1,1.09-6.43C23.54,14,30,12.27,36.14,14.2c.89.28,1.72.73,2.94,1.26.2-1.48.38-2.67.5-3.86C40.18,6,43.42,2.31,48.94,1A11.76,11.76,0,0,1,61.76,6.45c.35.56.74,1.09,1.24,1.83.83-.44,1.55-.85,2.29-1.23,7.12-3.64,15.4-.38,17.44,6.92a15,15,0,0,1,.41,4c0,5.36,0,10.72,0,16.09,0,1,.11,2,.17,3a45.31,45.31,0,0,1,6.14-1c7.07-.22,12,4.58,12,11.69q.06,11.92,0,23.84c-.13,18.1,0,36.2-.54,54.28-.4,13.58-6.27,24.91-16.49,33.84A46.58,46.58,0,0,1,53,171.3c-25.83.07-44.27-17.54-48.4-40.93A268.11,268.11,0,0,1,.78,89c0-2,.23-4,.34-6C1.51,75.61,6.24,72.46,13,71.81,14.94,71.62,17,71.78,19.41,71.78ZM79,82.06c-.08-1.5-.18-2.53-.18-3.57L79,23a71.19,71.19,0,0,0-.08-7.16,7,7,0,0,0-1.51-3.6C75.09,9.58,72.05,9,68.76,10a7.05,7.05,0,0,0-5.24,6.19,39.56,39.56,0,0,0-.27,5.45Q63.11,46.75,63,71.89c0,1,0,1.92-.06,2.87-.09,1.45-.74,2.35-2.34,2.28-1.44-.62-1.44-1.91-1.44-3.16,0-2.87,0-5.74,0-8.62.05-17.52.13-35.05.13-52.58,0-4.65-3-7.75-7.34-7.95-4.76-.21-8,2.6-8.44,7.44-.1,1.05-.06,2.11-.06,3.16q0,29.18,0,58.33a9,9,0,0,1-.15,2.85c-.23.68-1.11,1.69-1.57,1.63a2.92,2.92,0,0,1-2-1.55,8.62,8.62,0,0,1-.25-3.11c0-9.29,0-18.59,0-27.88,0-7.08-.13-14.17-.34-21.25A7.37,7.37,0,0,0,38,20.64a7.7,7.7,0,0,0-8.61-3.07,7.39,7.39,0,0,0-5.55,7.5q-.24,24.42-.36,48.84A16.66,16.66,0,0,0,24,77a64.58,64.58,0,0,1,1.13,6.43c.21,3,.11,5.93.13,8.9s0,5.94.05,8.91a7.75,7.75,0,0,0,.58,1.88h2.76c.14-7.09,2.91-12.52,9.68-14.9s12.36.1,17.51,6.09a12.38,12.38,0,0,1,1.53-2.61,14.37,14.37,0,0,1,18.18-1.95c5,3.39,8.24,10.52,5.39,16.94a51,51,0,0,1-4.79,9.11C70.19,124,64,132.06,57.84,140.13a21.28,21.28,0,0,1-2.53,2.42c-2.18-1.39-2.23-1.39-2.27-3.26,0-2.87.11-5.75-.06-8.61-.49-8.54-4.17-15.17-11.8-19.43-5-2.77-10.47-3.51-16-4.1-1.1-.12-2.19-.3-3.53-.49-.12-1.46-.3-2.66-.3-3.87,0-5.94,0-11.88-.05-17.81a17.52,17.52,0,0,0-.78-5.36A6.58,6.58,0,0,0,18,76.33c-4-2.49-11.45.34-12.42,4.93a38.94,38.94,0,0,0-.79,10.82c.83,11.34,1.85,22.68,3.14,34,1.2,10.43,5,19.85,12.37,27.56,9.17,9.62,20.53,14.09,33.8,13.59,16.05-.61,28.3-7.9,36.75-21.49,4.36-7,6.08-14.84,6.3-23,.17-6.41,0-12.83.1-19.25q.16-26.43.35-52.86a23.89,23.89,0,0,0-.33-4.86,7.55,7.55,0,0,0-7.77-5.93c-3.5.09-5.65,2.19-6.27,6.24a24.62,24.62,0,0,0-.15,3.44c-.13,9.67-.23,19.34-.39,29a29.72,29.72,0,0,1-.55,3.78ZM33.8,104.2C40.2,106,46.43,108.55,51,114s6,12.13,6.38,19.59a12.45,12.45,0,0,0,1.54-1.37c5.15-7,10.41-13.93,15.34-21.09a22.7,22.7,0,0,0,3.16-7.61,10,10,0,1,0-19.64-3.94,7.46,7.46,0,0,1-.54,2.21c-.41.65-1.15,1.46-1.78,1.5s-1.48-.68-2-1.29a3.93,3.93,0,0,1-.49-1.9,9.57,9.57,0,0,0-6.52-8,9.76,9.76,0,0,0-10.17,2A8.86,8.86,0,0,0,33.8,104.2Z" transform="translate(-0.27 -0.18)" style="fill:#53565a;stroke:#53565a;stroke-miterlimit:10"/><path d="M33.8,104.2a8.86,8.86,0,0,1,2.52-10.11,9.76,9.76,0,0,1,10.17-2,9.57,9.57,0,0,1,6.52,8,3.93,3.93,0,0,0,.49,1.9c.49.61,1.32,1.32,2,1.29s1.37-.85,1.78-1.5a7.46,7.46,0,0,0,.54-2.21,10,10,0,1,1,19.64,3.94,22.7,22.7,0,0,1-3.16,7.61c-4.93,7.16-10.19,14.09-15.34,21.09a12.45,12.45,0,0,1-1.54,1.37C57,126.12,55.63,119.47,51,114S40.2,106,33.8,104.2Z" transform="translate(-0.27 -0.18)" style="fill:#f4633a"/></svg>